<svg viewBox="0 0 42 56" fill="none" xmlns="http://www.w3.org/2000/svg"><path fill-rule="evenodd" clip-rule="evenodd" d="M3.809 40.141h34.383a3.368 3.368 0 0 1 3.367 3.367v.266a3.368 3.368 0 0 1-3.366 3.368H3.808A3.368 3.368 0 0 1 .44 43.774v-.266a3.368 3.368 0 0 1 3.367-3.367z" fill="#2FE3FF"/><path fill-rule="evenodd" clip-rule="evenodd" d="M20.824 10.897a5.235 5.235 0 0 1 5.228 5.24v.787H15.595v-.786a5.235 5.235 0 0 1 5.229-5.24z" fill="#FF9600"/><path d="M15.241 16.038c3.083 0 5.583-2.46 5.583-5.495 0-3.034-2.5-5.494-5.583-5.494-3.084 0-5.584 2.46-5.584 5.494 0 3.035 2.5 5.495 5.584 5.495z" fill="#FF9600"/><mask id="a" style="mask-type:alpha" maskUnits="userSpaceOnUse" x="4" y="15" width="34" height="37"><path d="M11.164 15.949h19.851a6.735 6.735 0 0 1 6.735 6.735v26.824a2.172 2.172 0 0 1-2.172 2.171H6.6a2.17 2.17 0 0 1-2.17-2.17V22.683a6.735 6.735 0 0 1 6.734-6.735z" fill="#fff"/></mask><g mask="url(#a)"><path d="M11.164 15.949h19.851a6.735 6.735 0 0 1 6.735 6.735v26.824a2.172 2.172 0 0 1-2.172 2.171H6.6a2.17 2.17 0 0 1-2.17-2.17V22.683a6.735 6.735 0 0 1 6.734-6.735z" fill="#FFC6B7"/><path opacity=".332" d="M5.05 6.998h-18.078a3.988 3.988 0 0 0-3.988 3.988v12.761a3.988 3.988 0 0 0 3.988 3.988H5.05a3.988 3.988 0 0 0 3.988-3.988v-12.76A3.988 3.988 0 0 0 5.05 6.997zM56.005 6.998H37.927a3.988 3.988 0 0 0-3.987 3.988v12.761a3.988 3.988 0 0 0 3.988 3.988h18.077a3.988 3.988 0 0 0 3.988-3.988v-12.76a3.988 3.988 0 0 0-3.988-3.989z" fill="#FF9600"/><path fill-rule="evenodd" clip-rule="evenodd" d="M-3.724 40.141h47.5v17.373h-47.5V40.141z" fill="#2FE3FF"/></g><path d="M38.591 31.988a2.968 2.968 0 1 0 0-5.936 2.968 2.968 0 0 0 0 5.936zM3.41 31.988a2.968 2.968 0 1 0 0-5.936 2.968 2.968 0 0 0 0 5.936z" fill="#FFC6B7"/><path d="M19.14 43.73a.93.93 0 1 0-1.862 0v5.406a.93.93 0 1 0 1.861 0V43.73zM24.81 43.73a.93.93 0 1 0-1.86 0v5.406a.93.93 0 1 0 1.86 0V43.73z" fill="#fff"/><path fill-rule="evenodd" clip-rule="evenodd" d="M16.14 19.316a4.176 4.176 0 0 1 4.178 4.179v2.54a4.178 4.178 0 0 1-8.356 0v-2.54a4.179 4.179 0 0 1 4.178-4.18z" fill="#fff"/><path fill-rule="evenodd" clip-rule="evenodd" d="M17.294 21.797c1.035 0 1.875.84 1.875 1.876v2.357a1.876 1.876 0 0 1-3.752 0v-2.357c0-1.036.84-1.875 1.877-1.875z" fill="#3D3D3D"/><path fill-rule="evenodd" clip-rule="evenodd" d="M25.975 19.316a4.178 4.178 0 0 0-4.178 4.179v2.54a4.178 4.178 0 1 0 8.357 0v-2.54a4.179 4.179 0 0 0-4.178-4.18z" fill="#fff"/><mask id="b" style="mask-type:alpha" maskUnits="userSpaceOnUse" x="23" y="21" width="4" height="7"><path d="M25.09 21.797c-1.037 0-1.877.84-1.877 1.876v2.357a1.876 1.876 0 1 0 3.752 0v-2.357c0-1.035-.84-1.875-1.876-1.875z" fill="#fff"/></mask><g mask="url(#b)"><path d="M25.09 21.797c-1.037 0-1.877.84-1.877 1.876v2.357a1.876 1.876 0 1 0 3.752 0v-2.357c0-1.035-.84-1.875-1.876-1.875z" fill="#3D3D3D"/><path d="M23.305 23.835a1.506 1.506 0 1 1 0-3.012 1.506 1.506 0 0 1 0 3.012z" fill="#fff"/></g><path d="M9.569 28.976c4.422-.023 8.262 1.04 11.52 3.19" stroke="#FFC6B7" stroke-width="1.783"/><path d="M21.376 33.984c-1.632.488-2.89.004-3.773-1.453" stroke="#EE9583" stroke-width=".849" stroke-linecap="round" stroke-linejoin="round"/><path d="M15.506 23.835a1.506 1.506 0 1 1 0-3.012 1.506 1.506 0 0 1 0 3.012z" fill="#fff"/><path fill-rule="evenodd" clip-rule="evenodd" d="M20.956 31.988a1.64 1.64 0 0 0 1.639-1.643c0-.908-1.639-3.054-1.639-3.054s-1.638 2.146-1.638 3.054a1.64 1.64 0 0 0 1.638 1.643z" fill="#EE9583"/></svg>